HIERARCHY
ROOT Hips
{
 OFFSET 0.000000 0.000000 0.000000
 CHANNELS 6 Xposition Yposition Zposition Yrotation Xrotation Zrotation
 JOINT Chest
 {
  OFFSET 0.000000 9.585900 0.002600
  CHANNELS 3 Yrotation Xrotation Zrotation
  JOINT Chest2
  {
   OFFSET 0.000000 9.601200 -0.005300
   CHANNELS 3 Yrotation Xrotation Zrotation
   JOINT Chest3
   {
    OFFSET 0.000000 9.561800 0.000000
    CHANNELS 3 Yrotation Xrotation Zrotation
    JOINT Chest4
    {
     OFFSET 0.000000 9.552100 0.000000
     CHANNELS 3 Yrotation Xrotation Zrotation
     JOINT Neck
     {
      OFFSET 0.000000 14.453000 0.000000
      CHANNELS 3 Yrotation Xrotation Zrotation
      JOINT Head
      {
       OFFSET 0.000000 8.936500 -0.011300
       CHANNELS 3 Yrotation Xrotation Zrotation
       End Site
       {
        OFFSET 0.000000 17.073600 -0.006000
       }
      }
     }
     JOINT RightCollar
     {
      OFFSET -2.921100 9.558500 0.000000
      CHANNELS 3 Yrotation Xrotation Zrotation
      JOINT RightShoulder
      {
       OFFSET -13.519700 0.000000 0.000000
       CHANNELS 3 Yrotation Xrotation Zrotation
       JOINT RightElbow
       {
        OFFSET 0.000000 -29.696600 0.000000
        CHANNELS 3 Yrotation Xrotation Zrotation
        JOINT RightWrist
        {
         OFFSET 0.000000 -24.004700 0.000000
         CHANNELS 3 Yrotation Xrotation Zrotation
         End Site
         {
          OFFSET 0.000000 -17.728500 0.000000
         }
        }
       }
      }
     }
     JOINT LeftCollar
     {
      OFFSET 2.921100 9.558500 0.000000
      CHANNELS 3 Yrotation Xrotation Zrotation
      JOINT LeftShoulder
      {
       OFFSET 13.519700 0.000000 0.000000
       CHANNELS 3 Yrotation Xrotation Zrotation
       JOINT LeftElbow
       {
        OFFSET 0.000000 -29.696600 0.000000
        CHANNELS 3 Yrotation Xrotation Zrotation
        JOINT LeftWrist
        {
         OFFSET 0.000000 -24.004700 0.000000
         CHANNELS 3 Yrotation Xrotation Zrotation
         End Site
         {
          OFFSET 0.000000 -17.728500 0.000000
         }
        }
       }
      }
     }
    }
   }
  }
 }
 JOINT RightHip
 {
  OFFSET -7.771700 -0.012900 -0.001300
  CHANNELS 3 Yrotation Xrotation Zrotation
  JOINT RightKnee
  {
   OFFSET 0.000000 -40.869800 0.001200
   CHANNELS 3 Yrotation Xrotation Zrotation
   JOINT RightAnkle
   {
    OFFSET 0.000000 -39.717900 0.002100
    CHANNELS 3 Yrotation Xrotation Zrotation
    JOINT RightToe
    {
     OFFSET 0.000000 -4.965400 11.033500
     CHANNELS 3 Yrotation Xrotation Zrotation
     End Site
     {
      OFFSET 0.000000 -1.423100 5.872300
     }
    }
   }
  }
 }
 JOINT LeftHip
 {
  OFFSET 7.771700 -0.012900 -0.001300
  CHANNELS 3 Yrotation Xrotation Zrotation
  JOINT LeftKnee
  {
   OFFSET 0.000000 -40.869800 0.001200
   CHANNELS 3 Yrotation Xrotation Zrotation
   JOINT LeftAnkle
   {
    OFFSET 0.000000 -39.717900 0.002100
    CHANNELS 3 Yrotation Xrotation Zrotation
    JOINT LeftToe
    {
     OFFSET 0.000000 -4.965400 11.033500
     CHANNELS 3 Yrotation Xrotation Zrotation
     End Site
     {
      OFFSET 0.000000 -1.423100 5.872300
     }
    }
   }
  }
 }
}
MOTION
Frames: 14
Frame Time: 0.008333
-16.787738 50.847577 9.697520 163.684681 -6.239595 -0.306876 3.007592 6.601451 1.099351 0.114553 0.283380 0.006904 0.200962 0.497341 0.012529 2.568207 6.292946 0.291346 2.138009 19.082144 0.238034 3.855679 -0.339359 -0.229443 3.818413 6.177563 0.507330 -6.866341 -14.007773 -6.633315 -29.974126 -82.497780 50.409601 1.313939 6.290831 -28.222357 -5.232704 3.185829 -0.846973 18.402409 -8.981025 2.971733 54.104211 -83.552758 -74.107127 -1.357598 9.051210 11.979825 -5.521035 -74.164539 2.580855 -116.518656 84.473719 -114.662217 -3.009131 -13.348906 -0.815257 -0.317012 0.780264 -0.157857 -10.727666 -76.705804 29.859005 121.394108 79.174407 116.580703 -15.228779 -20.039496 -0.089331 -0.305165 -1.060476 -0.144215
-16.786016 50.845946 9.698052 163.683189 -6.254855 -0.316993 3.016490 6.608659 1.114109 0.114671 0.283738 0.007000 0.201288 0.497929 0.012617 2.566194 6.297709 0.290585 2.149803 19.081182 0.245055 3.853335 -0.331289 -0.225921 3.817500 6.166673 0.509874 -6.859767 -14.002945 -6.634570 -30.029966 -82.509569 50.460821 1.319914 6.268709 -28.218399 -5.222895 3.181828 -0.840276 18.419068 -8.986507 2.966609 54.151091 -83.549704 -74.166917 -1.356465 9.047162 11.988265 -5.573445 -74.147102 2.625085 -116.520915 84.476509 -114.657554 -3.006640 -13.345866 -0.819310 -0.315021 0.776309 -0.161315 -10.744904 -76.689450 29.881106 121.396266 79.175091 116.580959 -15.197496 -20.047969 -0.096526 -0.340234 -1.053080 -0.145576
-16.786575 50.844502 9.698493 163.681979 -6.266812 -0.312727 3.016633 6.610990 1.112233 0.118565 0.274977 0.007160 0.200986 0.501148 0.012816 2.567521 6.306830 0.293208 2.146061 19.086862 0.243089 3.857121 -0.328752 -0.223647 3.816430 6.165421 0.509690 -6.848743 -14.008157 -6.633002 -30.109848 -82.520072 50.536705 1.321605 6.282815 -28.222658 -5.220610 3.172119 -0.828097 18.445318 -8.980110 2.958062 54.216544 -83.545408 -74.243574 -1.356049 9.048745 11.988352 -5.571855 -74.134015 2.612607 -116.533772 84.482715 -114.662873 -3.009916 -13.350014 -0.823491 -0.309597 0.779888 -0.162366 -10.692309 -76.679198 29.834211 121.396687 79.182914 116.585319 -15.200792 -20.048652 -0.091852 -0.355587 -1.053107 -0.150646
-16.786557 50.843351 9.698758 163.678365 -6.280810 -0.310426 3.022933 6.616020 1.111497 0.117683 0.279259 0.007083 0.199877 0.503709 0.012829 2.589268 6.291998 0.292158 2.135667 19.099687 0.249705 3.853013 -0.323264 -0.219072 3.797895 6.173069 0.517876 -6.834227 -14.016340 -6.630872 -30.071480 -82.518997 50.496034 1.320679 6.291340 -28.233076 -5.241725 3.187475 -0.823561 18.473991 -8.990643 2.960774 54.292215 -83.540899 -74.328282 -1.354416 9.060575 11.974233 -5.573670 -74.117969 2.607050 -116.544653 84.491433 -114.670673 -3.003415 -13.352419 -0.823332 -0.319371 0.784288 -0.160076 -10.641078 -76.667802 29.791454 121.397268 79.189092 116.591591 -15.195097 -20.045985 -0.094758 -0.363633 -1.056099 -0.149557
-16.787201 50.842272 9.700150 163.678332 -6.287091 -0.306131 3.026806 6.612421 1.108014 0.115700 0.284326 0.007093 0.203021 0.498988 0.012809 2.596860 6.292843 0.292053 2.152646 19.099396 0.256948 3.841373 -0.311594 -0.207859 3.790705 6.171054 0.524685 -6.828468 -14.019428 -6.627146 -30.075444 -82.522432 50.511016 1.321955 6.305146 -28.249669 -5.252931 3.187099 -0.813860 18.494562 -8.988991 2.960679 54.381284 -83.543460 -74.418910 -1.353152 9.056212 11.972032 -5.570359 -74.110059 2.594512 -116.533173 84.498619 -114.655411 -3.001142 -13.354172 -0.824675 -0.320310 0.788668 -0.160412 -10.598440 -76.664880 29.753349 121.388494 79.192742 116.583710 -15.188483 -20.035561 -0.093792 -0.347304 -1.064606 -0.148512
-16.787999 50.841028 9.704467 163.688607 -6.275925 -0.306684 3.028655 6.580736 1.108418 0.110658 0.296819 0.006387 0.203592 0.499216 0.012829 2.601495 6.289890 0.292709 2.155171 19.103726 0.261193 3.844416 -0.301535 -0.199719 3.781992 6.177399 0.528893 -6.828233 -14.026503 -6.619481 -30.077924 -82.522135 50.524672 1.319591 6.299772 -28.242770 -5.257833 3.183479 -0.809962 18.493902 -8.977875 2.964528 54.514242 -83.558223 -74.540259 -1.363591 9.033309 12.005561 -5.607598 -74.119274 2.607350 -116.514246 84.506650 -114.622167 -3.013476 -13.352696 -0.834233 -0.298600 0.790740 -0.161414 -10.609078 -76.676993 29.757750 121.305084 79.177671 116.493114 -15.196649 -20.021839 -0.083429 -0.337823 -1.066841 -0.159527
-16.786149 50.840318 9.705257 163.690187 -6.289188 -0.315328 3.034314 6.581457 1.120128 0.114559 0.287804 0.006365 0.198755 0.508228 0.011192 2.602385 6.295959 0.293249 2.162117 19.102501 0.264191 3.861977 -0.292437 -0.189728 3.780139 6.178970 0.531279 -6.831998 -14.026148 -6.617150 -30.117953 -82.521443 50.573783 1.321746 6.299715 -28.238352 -5.237652 3.168260 -0.799128 18.489947 -8.968996 2.970585 54.613575 -83.562453 -74.644394 -1.357145 9.044121 12.001028 -5.663094 -74.102782 2.652500 -116.521311 84.512902 -114.625587 -3.009197 -13.349101 -0.842219 -0.298123 0.786980 -0.161896 -10.621261 -76.664456 29.770477 121.259402 79.164463 116.444499 -15.165143 -20.013993 -0.096448 -0.306921 -1.069992 -0.152823
-16.782762 50.839759 9.704904 163.686442 -6.311089 -0.330139 3.044860 6.591195 1.138302 0.116236 0.287465 0.007381 0.204940 0.499968 0.012644 2.595872 6.309823 0.290602 2.166315 19.101752 0.267271 3.859050 -0.285766 -0.184549 3.785669 6.172816 0.537040 -6.830917 -14.024507 -6.616804 -30.057028 -82.516173 50.504110 1.318773 6.293335 -28.226702 -5.240766 3.171464 -0.796988 18.525423 -8.978903 2.992875 54.794197 -83.553957 -74.848600 -1.349564 9.055123 11.998264 -5.713265 -74.078153 2.705311 -116.514303 84.513452 -114.615274 -3.003545 -13.340150 -0.843839 -0.301438 0.778301 -0.163166 -10.640923 -76.641283 29.802239 121.240401 79.155153 116.421381 -15.132210 -20.014920 -0.114914 -0.333583 -1.068490 -0.140224
-16.784907 50.839066 9.703195 163.678951 -6.330875 -0.310474 3.054364 6.600528 1.120981 0.113313 0.295999 0.007740 0.205083 0.500111 0.012638 2.616144 6.291914 0.293034 2.151556 19.116869 0.268706 3.855286 -0.280579 -0.181398 3.780819 6.163594 0.539609 -6.841520 -14.007569 -6.609855 -30.014722 -82.509630 50.466405 1.318116 6.290084 -28.221650 -5.245242 3.179416 -0.796133 18.517746 -8.970627 2.999806 54.930487 -83.568984 -74.979677 -1.346397 9.052425 12.005732 -5.663085 -74.060381 2.647366 -116.541864 84.518938 -114.644016 -2.994563 -13.344774 -0.845709 -0.308377 0.784980 -0.159220 -10.521632 -76.625549 29.700306 121.253664 79.155447 116.435397 -15.189274 -20.002296 -0.106338 -0.323213 -1.079021 -0.134572
-16.786806 50.838132 9.702809 163.670850 -6.342981 -0.294480 3.066597 6.600452 1.107561 0.110131 0.298759 0.006062 0.205671 0.500011 0.012794 2.622896 6.289150 0.296424 2.143668 19.127750 0.268632 3.856484 -0.278769 -0.179656 3.784503 6.159208 0.537159 -6.831866 -14.009829 -6.600496 -29.973245 -82.493106 50.438289 1.318869 6.288319 -28.240179 -5.241953 3.176367 -0.794632 18.512626 -8.959806 3.006849 55.022366 -83.579646 -75.069907 -1.348273 9.049077 12.020608 -5.661564 -74.050233 2.635522 -116.575409 84.526302 -114.681641 -2.990540 -13.345963 -0.857704 -0.305145 0.786381 -0.159174 -10.431423 -76.616268 29.623274 121.268460 79.156125 116.448667 -15.228805 -19.995122 -0.094075 -0.351210 -1.082893 -0.140416
-16.786327 50.837207 9.702095 163.676976 -6.360733 -0.293421 3.068999 6.604215 1.107744 0.114274 0.288722 0.007694 0.200058 0.510769 0.012619 2.626570 6.287289 0.297974 2.140541 19.135203 0.270542 3.853807 -0.272221 -0.176083 3.784393 6.163153 0.534604 -6.832175 -14.005112 -6.596290 -29.989214 -82.492985 50.471454 1.315054 6.293066 -28.259097 -5.236881 3.180770 -0.792029 18.513463 -8.961592 3.016370 55.016089 -83.568352 -75.077913 -1.353826 9.038498 12.039067 -5.695351 -74.032453 2.650517 -116.585952 84.520487 -114.684659 -2.990138 -13.345458 -0.876896 -0.289730 0.782676 -0.150158 -10.406502 -76.598856 29.597118 121.284893 79.162118 116.462487 -15.242126 -19.995166 -0.085316 -0.401413 -1.077206 -0.154834
-16.787034 50.836052 9.702066 163.679402 -6.372684 -0.286744 3.073933 6.605662 1.101400 0.108047 0.295964 0.008729 0.206261 0.500051 0.013249 2.624064 6.293447 0.298788 2.145627 19.131241 0.273245 3.849201 -0.262955 -0.173662 3.789447 6.160105 0.534828 -6.801210 -14.019897 -6.599129 -29.892985 -82.473631 50.348234 1.312000 6.294202 -28.261574 -5.199595 3.163565 -0.784555 18.489548 -8.948911 3.025456 55.120508 -83.576572 -75.182738 -1.368103 9.025602 12.056904 -5.717314 -74.022577 2.660053 -116.624424 84.524489 -114.731001 -2.983617 -13.342349 -0.877984 -0.295890 0.780792 -0.148034 -10.357376 -76.589318 29.551178 121.301301 79.170202 116.480628 -15.270001 -19.991897 -0.077866 -0.401404 -1.078213 -0.159770
-16.784721 50.835040 9.701222 163.689722 -6.394875 -0.297488 3.068129 6.623649 1.112100 0.117335 0.284925 0.007485 0.211284 0.484705 0.012104 2.612196 6.315713 0.303171 2.150285 19.128625 0.274371 3.848380 -0.254170 -0.169240 3.797184 6.155163 0.538265 -6.789842 -14.021602 -6.603615 -29.847407 -82.465648 50.291864 1.311395 6.291476 -28.249855 -5.187448 3.161168 -0.780851 18.495788 -8.951013 3.033620 55.206788 -83.578565 -75.288547 -1.368972 9.028774 12.067917 -5.798043 -73.998718 2.721701 -116.676530 84.530430 -114.783343 -2.980764 -13.336821 -0.890978 -0.296189 0.771709 -0.145062 -10.388620 -76.566639 29.577000 121.329277 79.178254 116.506657 -15.259086 -19.996102 -0.084099 -0.386394 -1.074700 -0.155885
-16.783564 50.833844 9.701469 163.689274 -6.409603 -0.302994 3.076239 6.622547 1.117704 0.117217 0.270085 0.006637 0.206546 0.499903 0.013458 2.616722 6.316076 0.304780 2.155688 19.124054 0.275807 3.848639 -0.239106 -0.162030 3.805626 6.155238 0.543019 -6.776593 -14.022601 -6.609253 -29.825926 -82.462011 50.266422 1.326884 6.292331 -28.218326 -5.188896 3.172606 -0.779645 18.515577 -8.960721 3.039769 55.276274 -83.580661 -75.368685 -1.367991 9.033652 12.066892 -5.840656 -73.983727 2.759644 -116.683583 84.529899 -114.788948 -2.977925 -13.333898 -0.901730 -0.293227 0.767672 -0.142666 -10.373521 -76.550598 29.573730 121.360841 79.194990 116.534740 -15.251862 -20.004688 -0.079824 -0.380363 -1.065842 -0.155027
